<svg aria-hidden="true" style="position: absolute; width: 0; height: 0; overflow: hidden;" version="1.1" xmlns="http://www.w3.org/2000/svg" xmlns:xlink="http://www.w3.org/1999/xlink">
<defs>
<symbol id="icon-toggle" viewBox="0 0 32 32">
<path fill="#fff" style="fill: var(--color1, #fff)" d="M8 8.242h16c4.285 0 7.758 3.473 7.758 7.758s-3.473 7.758-7.758 7.758h-16c-4.285 0-7.758-3.473-7.758-7.758s3.473-7.758 7.758-7.758z"></path>
<path fill="#4b48db" style="fill: var(--color2, #4b48db)" d="M13.6 16c0 3.535-2.865 6.4-6.4 6.4s-6.4-2.865-6.4-6.4c0-3.535 2.865-6.4 6.4-6.4s6.4 2.865 6.4 6.4z"></path>
<path fill="none" stroke="#4b48db" style="stroke: var(--color2, #4b48db)" stroke-linejoin="miter" stroke-linecap="butt" stroke-miterlimit="4" stroke-width="0.4838" d="M8 8.242h16c4.285 0 7.758 3.473 7.758 7.758s-3.473 7.758-7.758 7.758h-16c-4.285 0-7.758-3.473-7.758-7.758s3.473-7.758 7.758-7.758z"></path>
</symbol>
<symbol id="icon-moon" viewBox="0 0 32 32">
<path fill="none" stroke="#5f6775" style="stroke: var(--color3, #5f6775)" stroke-linejoin="round" stroke-linecap="round" stroke-miterlimit="4" stroke-width="2.2857" d="M28 17.053c-0.21 2.27-1.061 4.433-2.456 6.236s-3.273 3.172-5.417 3.946c-2.144 0.774-4.464 0.922-6.688 0.426s-4.262-1.615-5.874-3.227c-1.612-1.612-2.731-3.649-3.227-5.874s-0.348-4.544 0.426-6.688 2.143-4.023 3.946-5.417c1.803-1.394 3.966-2.246 6.236-2.456-1.329 1.798-1.968 4.013-1.802 6.242s1.127 4.325 2.708 5.906c1.581 1.581 3.676 2.542 5.906 2.708s4.444-0.473 6.242-1.802v0z"></path>
</symbol>
<symbol id="icon-sun" viewBox="0 0 32 32">
<path fill="none" stroke="#4b48db" style="stroke: var(--color2, #4b48db)" stroke-linejoin="round" stroke-linecap="round" stroke-miterlimit="4" stroke-width="2.2857" d="M16 1.778v2.586M16 27.636v2.586M5.941 5.941l1.836 1.836M24.223 24.223l1.836 1.836M1.778 16h2.586M27.636 16h2.586M5.941 26.059l1.836-1.836M24.223 7.777l1.836-1.836M22.465 16c0 3.57-2.894 6.465-6.465 6.465s-6.465-2.894-6.465-6.465c0-3.57 2.894-6.465 6.465-6.465s6.465 2.894 6.465 6.465z"></path>
</symbol>
<symbol id="icon-heart" viewBox="0 0 32 32">
<path fill="none" stroke="#4440f7" style="stroke: var(--color4, #4440f7)" stroke-linejoin="round" stroke-linecap="round" stroke-miterlimit="4" stroke-width="2" d="M9.333 4c-3.681 0-6.667 2.955-6.667 6.6 0 2.943 1.167 9.927 12.651 16.987 0.206 0.125 0.442 0.191 0.683 0.191s0.477-0.066 0.683-0.191c11.484-7.060 12.651-14.044 12.651-16.987 0-3.645-2.985-6.6-6.667-6.6s-6.667 4-6.667 4-2.985-4-6.667-4z"></path>
</symbol>
<symbol id="icon-close-up" viewBox="0 0 32 32">
<path fill="#4440f6" style="fill: var(--color5, #4440f6)" d="M3.76 25.143l-3.76-3.479 16-14.806 16 14.806-3.76 3.479-12.24-11.302-12.24 11.302z"></path>
</symbol>
<symbol id="icon-open-down" viewBox="0 0 32 32">
<path fill="#4440f6" style="fill: var(--color5, #4440f6)" d="M3.76 9.143l-3.76 3.479 16 14.806 16-14.806-3.76-3.479-12.24 11.302-12.24-11.302z"></path>
</symbol>
<symbol id="icon-calendar" viewBox="0 0 32 32">
<path fill="#4440f7" style="fill: var(--color4, #4440f7)" d="M23.407 4.444h5.926c0.393 0 0.77 0.156 1.047 0.434s0.434 0.655 0.434 1.048v23.704c0 0.393-0.156 0.77-0.434 1.047s-0.655 0.434-1.047 0.434h-26.667c-0.393 0-0.77-0.156-1.048-0.434s-0.434-0.655-0.434-1.047v-23.704c0-0.393 0.156-0.77 0.434-1.048s0.655-0.434 1.048-0.434h5.926v-2.963h2.963v2.963h8.889v-2.963h2.963v2.963zM27.852 16.296h-23.704v11.852h23.704v-11.852zM20.444 7.407h-8.889v2.963h-2.963v-2.963h-4.444v5.926h23.704v-5.926h-4.444v2.963h-2.963v-2.963zM7.111 19.259h2.963v2.963h-2.963v-2.963zM14.518 19.259h2.963v2.963h-2.963v-2.963zM21.926 19.259h2.963v2.963h-2.963v-2.963z"></path>
</symbol>
<symbol id="icon-read" viewBox="0 0 32 32">
<path fill="#4440f6" style="fill: var(--color5, #4440f6)" d="M32 16c0 8.837-7.163 16-16 16s-16-7.163-16-16c0-8.837 7.163-16 16-16s16 7.163 16 16z"></path>
<path fill="none" stroke="#f4f4f4" style="stroke: var(--color6, #f4f4f4)" stroke-linejoin="round" stroke-linecap="round" stroke-miterlimit="4" stroke-width="1" d="M8.5 9.25h4.5c0.796 0 1.559 0.316 2.121 0.879s0.879 1.326 0.879 2.121v10.5c0-0.597-0.237-1.169-0.659-1.591s-0.994-0.659-1.591-0.659h-5.25v-11.25z"></path>
<path fill="none" stroke="#f4f4f4" style="stroke: var(--color6, #f4f4f4)" stroke-linejoin="round" stroke-linecap="round" stroke-miterlimit="4" stroke-width="1" d="M23.5 9.25h-4.5c-0.796 0-1.559 0.316-2.121 0.879s-0.879 1.326-0.879 2.121v10.5c0-0.597 0.237-1.169 0.659-1.591s0.994-0.659 1.591-0.659h5.25v-11.25z"></path>
</symbol>
<symbol id="icon-home" viewBox="0 0 32 32">
<path fill="#4440f6" style="fill: var(--color5, #4440f6)" d="M32 16c0 8.837-7.163 16-16 16s-16-7.163-16-16c0-8.837 7.163-16 16-16s16 7.163 16 16z"></path>
<path fill="none" stroke="#f4f4f4" style="stroke: var(--color6, #f4f4f4)" stroke-linejoin="round" stroke-linecap="round" stroke-miterlimit="4" stroke-width="1" d="M9.25 13.75l6.75-5.25 6.75 5.25v8.25c0 0.398-0.158 0.779-0.439 1.061s-0.663 0.439-1.061 0.439h-10.5c-0.398 0-0.779-0.158-1.061-0.439s-0.439-0.663-0.439-1.061v-8.25z"></path>
<path fill="none" stroke="#f4f4f4" style="stroke: var(--color6, #f4f4f4)" stroke-linejoin="round" stroke-linecap="round" stroke-miterlimit="4" stroke-width="1" d="M13.75 23.5v-7.5h4.5v7.5"></path>
</symbol>
<symbol id="icon-favorite" viewBox="0 0 32 32">
<path fill="#4440f6" style="fill: var(--color5, #4440f6)" d="M32 16c0 8.837-7.163 16-16 16s-16-7.163-16-16c0-8.837 7.163-16 16-16s16 7.163 16 16z"></path>
<path fill="none" stroke="#f4f4f4" style="stroke: var(--color6, #f4f4f4)" stroke-linejoin="round" stroke-linecap="round" stroke-miterlimit="4" stroke-width="1" d="M22.631 10.457c-0.383-0.383-0.838-0.687-1.338-0.895s-1.037-0.314-1.579-0.314c-0.542 0-1.078 0.107-1.579 0.314s-0.956 0.511-1.338 0.895l-0.795 0.795-0.795-0.795c-0.774-0.774-1.823-1.208-2.918-1.208s-2.144 0.435-2.918 1.208c-0.774 0.774-1.208 1.823-1.208 2.918s0.435 2.144 1.208 2.918l6.63 6.63 6.63-6.63c0.383-0.383 0.687-0.838 0.895-1.338s0.314-1.037 0.314-1.579c0-0.542-0.107-1.078-0.314-1.579s-0.512-0.955-0.895-1.338v0z"></path>
</symbol>
<symbol id="icon-bx_search" viewBox="0 0 32 32">
<path d="M13.464 23.726c2.277-0 4.489-0.763 6.283-2.165l5.64 5.64 1.814-1.814-5.64-5.64c1.404-1.794 2.166-4.006 2.167-6.284 0-5.659-4.604-10.263-10.264-10.263s-10.264 4.604-10.264 10.263 4.604 10.263 10.264 10.263zM13.464 5.766c4.245 0 7.698 3.452 7.698 7.697s-3.452 7.697-7.698 7.697c-4.245 0-7.698-3.452-7.698-7.697s3.452-7.697 7.698-7.697z"></path>
</symbol>

<symbol id="icon-menu" viewBox="0 0 32 32">
<path fill="none" stroke="#475F45" stroke-linejoin="round" stroke-linecap="round" stroke-miterlimit="4" stroke-width="2.6667" d="M4 16h24"></path>
<path fill="none" stroke="#475F45" stroke-linejoin="round" stroke-linecap="round" stroke-miterlimit="4" stroke-width="2.6667" d="M4 8h24"></path>
<path fill="none" stroke="#475F45" stroke-linejoin="round" stroke-linecap="round" stroke-miterlimit="4" stroke-width="2.6667" d="M4 24h24"></path>
</symbol>
<symbol id="icon-cross" viewBox="0 0 32 32">
<path d="M23.733 10.304l-1.504-1.504-5.963 5.963-5.963-5.963-1.504 1.504 5.963 5.963-5.963 5.963 1.504 1.504 5.963-5.963 5.963 5.963 1.504-1.504-5.963-5.963 5.963-5.963z"></path>
</symbol>
<symbol id="icon-chevron-right" viewBox="0 0 32 32">
<path fill="none" stroke="#fff" style="stroke: var(--color1, #fff)" stroke-linejoin="round" stroke-linecap="round" stroke-miterlimit="4" stroke-width="2.6667" d="M12 24l8-8-8-8"></path>
</symbol>
<symbol id="icon-location" viewBox="0 0 32 32">
<path fill="#fff" style="fill: var(--color1, #fff)" d="M16 2c-2.916 0.003-5.712 1.163-7.774 3.226s-3.222 4.858-3.226 7.774c-0.003 2.383 0.775 4.702 2.216 6.6 0 0 0.3 0.395 0.349 0.452l8.435 9.948 8.439-9.953c0.044-0.053 0.345-0.447 0.345-0.447l0.001-0.003c1.44-1.897 2.218-4.215 2.215-6.597-0.003-2.916-1.163-5.712-3.226-7.774s-4.858-3.222-7.774-3.226zM16 17c-0.791 0-1.564-0.235-2.222-0.674s-1.171-1.064-1.473-1.795c-0.303-0.731-0.382-1.535-0.228-2.311s0.535-1.489 1.095-2.048 1.272-0.94 2.048-1.095c0.776-0.154 1.58-0.075 2.311 0.228s1.356 0.815 1.795 1.473c0.44 0.658 0.674 1.431 0.674 2.222-0.001 1.060-0.423 2.077-1.173 2.827s-1.767 1.172-2.827 1.173z"></path>
</symbol>
</defs>
</svg>
